<svg width="64" height="64" viewBox="0 0 64 64" fill="none" xmlns="http://www.w3.org/2000/svg">
<g clip-path="url(#clip0_204_3)">
<path d="M33.3131 37.5941C34.5747 33.5046 34.8041 32.3932 33.163 30.6964C31.5219 28.9996 29.8825 29.3408 25.7639 30.4549C22.2407 31.4052 19.5675 29.0242 16.9994 30.2689C16.5158 30.4836 15.898 30.9559 15.5165 31.3301C13.9315 32.8631 13.8468 34.9979 15.1673 36.3632C16.8084 38.06 20.4256 39.1029 22.3809 41.1246C24.3362 43.1462 25.2579 46.7962 26.899 48.493C28.2195 49.8583 30.3545 49.8462 31.9408 48.3119C32.325 47.9404 32.8164 47.3373 33.0471 46.8612C34.3835 44.3296 32.2458 41.0836 33.3131 37.5941ZM47.769 37.9282C47.6766 37.6833 47.534 37.4605 47.3503 37.2741L47.3307 37.2539C46.3565 36.2789 44.2864 36.129 42.2179 37.0002C39.7421 38.0409 38.2139 40.1423 38.8058 41.7036C38.9025 41.951 39.042 42.169 39.2245 42.3577C40.1878 43.3537 42.2776 43.5132 44.3608 42.6357C46.8327 41.5909 48.3543 39.4827 47.769 37.9282ZM32.5658 24.6849C32.6375 24.759 32.7079 24.8318 32.7931 24.8902C34.1961 25.9957 36.6055 25.2018 38.1824 23.1211C39.6658 21.1568 39.8729 18.7549 38.7193 17.5622C38.6476 17.488 38.5772 17.4152 38.492 17.3568C37.089 16.2514 34.6796 17.0452 33.1028 19.1259C31.626 21.0863 31.4135 23.4935 32.5671 24.6862L32.5658 24.6849ZM44.7224 31.1399C46.8558 29.6347 47.7296 27.2531 46.6703 25.8127C46.6113 25.7299 46.5456 25.6521 46.474 25.58C45.3204 24.3872 42.9142 24.5155 40.9028 25.9339C38.7693 27.4391 37.8955 29.8206 38.9549 31.2611C39.0163 31.3426 39.0817 31.4201 39.1512 31.4938C40.3048 32.6866 42.719 32.5558 44.7224 31.1399ZM22.3528 24.6922C23.8908 25.3331 26.0435 23.872 27.1648 21.4362C28.1114 19.3834 28.023 17.2909 27.061 16.2962C26.8776 16.1066 26.6639 15.9594 26.4199 15.8546C24.8818 15.2136 22.7292 16.6748 21.6079 19.1105C20.6613 21.1633 20.7497 23.2559 21.7117 24.2505C21.8951 24.4401 22.1088 24.5873 22.3528 24.6922Z" stroke="#8E44AD" stroke-width="2" stroke-linecap="round" stroke-linejoin="round"/>
</g>
<defs>
<clipPath id="clip0_204_3">
<rect width="45" height="45" fill="white" transform="translate(32.3462 0.18457) rotate(45.9559)"/>
</clipPath>
</defs>
</svg>
